<svg width="13" height="24" viewBox="0 0 13 24" fill="none" xmlns="http://www.w3.org/2000/svg">
<g clip-path="url(#clip0_56_2)">
<path d="M0.422175 21.3614C0.156832 21.6589 0.0123773 22.0523 0.0192436 22.4587C0.02611 22.8652 0.183761 23.253 0.458984 23.5405C0.734208 23.8279 1.10551 23.9926 1.49468 23.9998C1.88384 24.0069 2.26048 23.856 2.54524 23.5789L12.5597 13.1192C12.6993 12.9735 12.81 12.8005 12.8856 12.6101C12.9611 12.4196 13 12.2155 13 12.0094C13 11.8033 12.9611 11.5992 12.8856 11.4088C12.81 11.2183 12.6993 11.0453 12.5597 10.8996L2.54524 0.439918C2.2618 0.154256 1.88227 -0.00370152 1.48841 6.58751e-05C1.09455 0.00383327 0.717858 0.169025 0.439474 0.46006C0.16109 0.751096 0.00328637 1.14469 5.07516e-05 1.55607C-0.00318487 1.96745 0.148407 2.3637 0.422175 2.65947L9.37509 12.0105L0.422175 21.3614Z" fill="white"/>
</g>
<defs>
<clipPath id="clip0_56_2">
<rect width="13" height="24" fill="white" transform="translate(13 24) rotate(180)"/>
</clipPath>
</defs>
</svg>
