<svg width="13" height="24" viewBox="0 0 13 24" fill="none" xmlns="http://www.w3.org/2000/svg">
<g clip-path="url(#clip0_56_2)">
<path d="M12.5778 2.63855C12.8432 2.34113 12.9876 1.94775 12.9808 1.54128C12.9739 1.13481 12.8162 0.746998 12.541 0.459538C12.2658 0.172078 11.8945 0.00741522 11.5053 0.000243583C11.1162 -0.00692805 10.7395 0.143951 10.4548 0.421092L0.440314 10.8808C0.300723 11.0265 0.189988 11.1995 0.114437 11.3899C0.0388855 11.5804 -5.59079e-07 11.7845 -5.59079e-07 11.9906C-5.59079e-07 12.1967 0.0388855 12.4008 0.114437 12.5912C0.189988 12.7817 0.300723 12.9547 0.440314 13.1004L10.4548 23.5601C10.7382 23.8457 11.1177 24.0037 11.5116 23.9999C11.9055 23.9962 12.2821 23.831 12.5605 23.5399C12.8389 23.2489 12.9967 22.8553 12.9999 22.4439C13.0032 22.0326 12.8516 21.6363 12.5778 21.3405L3.62491 11.9895L12.5778 2.63855Z" fill="white"/>
</g>
<defs>
<clipPath id="clip0_56_2">
<rect width="13" height="24" fill="white"/>
</clipPath>
</defs>
</svg>
